<svg width="25" height="26" viewBox="0 0 25 26" fill="none" xmlns="http://www.w3.org/2000/svg">
<path d="M24.6259 16.2218C22.9852 22.8026 16.3195 26.8072 9.73796 25.1665C3.15944 23.5258 -0.84556 16.8602 0.795518 10.2797C2.43545 3.69814 9.10072 -0.307244 15.6804 1.33345C22.2616 2.97415 26.2662 9.64057 24.6255 16.2218H24.6259Z" fill="#F7931A"/>
<path d="M18.1268 11.5001C18.371 9.86552 17.1265 8.98683 15.4247 8.40064L15.9767 6.18644L14.6286 5.85054L14.0911 8.0064C13.7372 7.91811 13.3733 7.83481 13.0117 7.75227L13.5529 5.58221L12.2059 5.24632L11.6535 7.45976C11.3602 7.39297 11.0723 7.32694 10.7929 7.25746L10.7944 7.25055L8.93565 6.78644L8.57711 8.22598C8.57711 8.22598 9.57711 8.45516 9.556 8.46936C10.1019 8.60564 10.2009 8.96686 10.184 9.25324L9.55523 11.7757C9.59285 11.7853 9.6416 11.7991 9.69535 11.8206L9.55331 11.7853L8.67155 15.3189C8.60475 15.4847 8.43546 15.7335 8.05389 15.639C8.06732 15.6586 7.07423 15.3945 7.07423 15.3945L6.40513 16.9377L8.15945 17.3749C8.48575 17.4567 8.80552 17.5423 9.11991 17.6229L8.56214 19.8629L9.9084 20.1988L10.4612 17.983C10.8286 18.0828 11.1856 18.1749 11.5349 18.2617L10.9844 20.4671L12.3322 20.803L12.89 18.5677C15.1883 19.0026 16.9169 18.8272 17.6435 16.7488C18.2297 15.0751 17.6147 14.1097 16.4055 13.4797C17.2861 13.2759 17.9495 12.6966 18.1265 11.5001H18.1268ZM15.047 15.8183C14.6301 17.492 11.8124 16.5876 10.8984 16.3604L11.6385 13.3934C12.5522 13.6214 15.4815 14.0728 15.0474 15.8183H15.047ZM15.4635 11.4759C15.0835 12.9984 12.738 12.2248 11.9767 12.0352L12.6478 9.34422C13.409 9.53385 15.8597 9.88779 15.4635 11.4759Z" fill="white"/>
</svg>
