<svg width="29" height="19" viewBox="0 0 29 19" fill="none" xmlns="http://www.w3.org/2000/svg">
<path d="M10.9901 2.35465L18.6462 2.35465L18.6462 16.1459H10.99L10.9901 2.35465Z" fill="#FF5F00"/>
<path d="M18.1608 9.25C18.1608 12.0475 16.854 14.5396 14.819 16.1456C16.3594 17.3631 18.2646 18.0238 20.2263 18.0209C25.0585 18.0209 28.9756 14.0941 28.9756 9.25C28.9756 4.4059 25.0585 0.479081 20.2263 0.47908C18.2646 0.476143 16.3593 1.1369 14.8189 2.35438C16.8537 3.96009 18.1608 6.45231 18.1608 9.25Z" fill="#EB001B"/>
<path d="M0.661133 9.24999C0.661133 4.40589 4.57824 0.479074 9.41049 0.479074C11.3724 0.476189 13.2779 1.13693 14.8186 2.35437C12.783 3.96037 11.4762 6.4523 11.4762 9.24999C11.4762 12.0477 12.783 14.5396 14.8186 16.1456C13.2779 17.363 11.3725 18.0238 9.41063 18.0209C4.57838 18.0209 0.661274 14.0941 0.661275 9.24999" fill="#F79E1B"/>
</svg>
