<svg width="19" height="22" viewBox="0 0 19 22" fill="none" xmlns="http://www.w3.org/2000/svg">
<path d="M5.35206 20.9878L5.71419 18.6879L4.90754 18.6692H1.05566L3.73252 1.69843C3.74049 1.64658 3.76683 1.59931 3.80674 1.56526C3.84664 1.5312 3.89747 1.51261 3.94993 1.51289H10.4447C12.6009 1.51289 14.0889 1.96151 14.8658 2.84699C15.23 3.26238 15.4619 3.69646 15.5741 4.17416C15.6918 4.6754 15.6939 5.27426 15.5789 6.00465L15.5706 6.05796V6.52597L15.9348 6.73228C16.2129 6.87313 16.4628 7.06365 16.6723 7.29445C16.9838 7.6496 17.1853 8.101 17.2705 8.63616C17.3584 9.18655 17.3294 9.84149 17.1853 10.583C17.0192 11.4359 16.7505 12.1788 16.3877 12.7866C16.0676 13.3312 15.6371 13.8028 15.124 14.1712C14.6421 14.5133 14.0695 14.7729 13.4221 14.939C12.7948 15.1024 12.0795 15.1848 11.295 15.1848H10.7895C10.4281 15.1848 10.0771 15.315 9.80148 15.5483C9.52629 15.7841 9.34374 16.1099 9.28633 16.4677L9.24825 16.6747L8.60846 20.7282L8.57938 20.8771C8.57176 20.9241 8.55861 20.9477 8.53922 20.9636C8.52044 20.9789 8.49701 20.9875 8.47275 20.9878H5.35206Z" fill="#253B80"/>
<path d="M16.2797 6.11196C16.2603 6.23589 16.2382 6.36258 16.2133 6.49274C15.3567 10.8897 12.4265 12.4086 8.684 12.4086H6.77849C6.32081 12.4086 5.93514 12.7409 5.86382 13.1923L4.88822 19.3789L4.61194 21.1325C4.60094 21.2021 4.60514 21.2732 4.62426 21.341C4.64338 21.4088 4.67696 21.4716 4.7227 21.5251C4.76843 21.5787 4.82523 21.6217 4.88919 21.6512C4.95314 21.6807 5.02273 21.696 5.09317 21.6961H8.47282C8.87303 21.6961 9.213 21.4053 9.27601 21.0107L9.30925 20.839L9.94557 16.8014L9.98642 16.5798C10.0487 16.1838 10.3894 15.893 10.7896 15.893H11.2951C14.5695 15.893 17.1328 14.5638 17.882 10.7173C18.1949 9.1104 18.0329 7.76868 17.2048 6.82505C16.9423 6.53314 16.6288 6.2915 16.2797 6.11196Z" fill="#179BD7"/>
<path d="M15.3842 5.75473C15.1107 5.67562 14.8325 5.61388 14.5512 5.56988C13.9954 5.48447 13.4337 5.4435 12.8714 5.44734H7.78085C7.58711 5.44719 7.39972 5.51634 7.25254 5.6423C7.10536 5.76826 7.0081 5.94271 6.97834 6.13412L5.89542 12.9922L5.86426 13.1923C5.89799 12.974 6.00877 12.7749 6.17654 12.6312C6.3443 12.4875 6.55799 12.4085 6.77893 12.4086H8.68444C12.4269 12.4086 15.3572 10.889 16.2137 6.49274C16.2393 6.36258 16.2608 6.23589 16.2802 6.11196C16.0542 5.99346 15.8186 5.89411 15.576 5.81496C15.5124 5.79386 15.4484 5.77378 15.3842 5.75473Z" fill="#222D65"/>
<path d="M6.97805 6.13412C7.00755 5.94266 7.10475 5.76812 7.25201 5.64223C7.39927 5.51633 7.5868 5.44743 7.78055 5.44803H12.8711C13.4742 5.44803 14.0372 5.48749 14.5509 5.57057C14.8986 5.6252 15.2415 5.70692 15.5764 5.81496C15.8291 5.89873 16.0638 5.99773 16.2806 6.11196C16.5354 4.48709 16.2785 3.38077 15.3998 2.37898C14.4311 1.27612 12.6828 0.803955 10.4456 0.803955H3.95083C3.49384 0.803955 3.10402 1.13627 3.03339 1.58835L0.328151 18.7336C0.31555 18.8132 0.320344 18.8946 0.342203 18.9722C0.364062 19.0498 0.402467 19.1217 0.454777 19.183C0.507086 19.2443 0.572058 19.2936 0.645224 19.3274C0.71839 19.3612 0.798013 19.3788 0.878616 19.3789H4.88836L5.89512 12.9922L6.97805 6.13412Z" fill="#253B80"/>
</svg>
