<svg width="18" height="18" viewBox="0 0 18 18" fill="none" xmlns="http://www.w3.org/2000/svg">
<path d="M16.2124 9.4598C16.2124 13.5229 12.9186 16.8167 8.85546 16.8167C4.79234 16.8167 1.49854 13.5229 1.49854 9.4598C1.49854 5.39668 4.79234 2.10287 8.85546 2.10287M12.5339 9.4598C12.5339 11.4914 10.887 13.1383 8.85546 13.1383C6.8239 13.1383 5.177 11.4914 5.177 9.4598C5.177 7.42824 6.8239 5.78134 8.85546 5.78134M12.1068 6.06019L8.85546 9.31152M16.9854 3.78433L14.0592 6.71053L12.1084 6.06026L11.4581 4.10946L14.3843 1.18326L14.7094 3.45919L16.9854 3.78433Z" stroke="#15A655" stroke-width="1.5" stroke-linecap="round" stroke-linejoin="round"/>
</svg>
