<svg width="19" height="19" viewBox="0 0 19 19" fill="none" xmlns="http://www.w3.org/2000/svg">
<path d="M8.23757 1.65814C8.56228 0.780619 9.80344 0.780618 10.1282 1.65814L11.7444 6.02586C11.8464 6.30175 12.064 6.51928 12.3399 6.62137L16.7076 8.23757C17.5851 8.56228 17.5851 9.80344 16.7076 10.1282L12.3399 11.7444C12.064 11.8464 11.8464 12.064 11.7444 12.3399L10.1282 16.7076C9.80344 17.5851 8.56228 17.5851 8.23757 16.7076L6.62137 12.3399C6.51928 12.064 6.30176 11.8464 6.02586 11.7444L1.65814 10.1282C0.780619 9.80344 0.780618 8.56228 1.65814 8.23757L6.02586 6.62137C6.30175 6.51928 6.51928 6.30176 6.62137 6.02586L8.23757 1.65814Z" stroke="#15A655" stroke-width="1.5" stroke-linejoin="round"/>
</svg>
