<svg width="20" height="15" viewBox="0 0 20 15" fill="none" xmlns="http://www.w3.org/2000/svg">
<path d="M0.799805 13.4259C1.85348 11.6684 4.16278 10.4656 7.76561 10.4656C11.3684 10.4656 13.6777 11.6684 14.7314 13.4259M15.398 9.13289C17.3059 10.0869 18.2599 11.0408 19.2139 12.9488M13.4136 1.84115C14.3114 2.32409 14.9217 3.27238 14.9217 4.36321C14.9217 5.42252 14.3462 6.34741 13.4907 6.84225M10.6275 4.36318C10.6275 5.94377 9.34621 7.22509 7.76561 7.22509C6.18502 7.22509 4.90369 5.94377 4.90369 4.36318C4.90369 2.78258 6.18502 1.50126 7.76561 1.50126C9.34621 1.50126 10.6275 2.78258 10.6275 4.36318Z" stroke="#15A655" stroke-width="1.5" stroke-linecap="round" stroke-linejoin="round"/>
</svg>
